# xmcd
#
# Track frame offsets:
#	150
#	16977
#	31806
#	44942
#	57918
#	60302
#	65580
#	70832
#	76101
#	81391
#	83049
#	86459
#	89897
#	93459
#	97161
#	99463
#	104675
#	109745
#	114947
#	120123
#	121767
#	125290
#	128750
#	132150
#	135629
#	155217
#	171940
#	186526
#	199468
#	211176
#	218012
#	223523
#	228455
#	232811
#
# Disc length: 3155 seconds
#
# Revision: 1
# Processed by: cddbd v1.5.2PL0 Copyright (c) Steve Scherf et al.
# Submitted via: audiograbber 1.83.01
#
DISCID=e20c5122
DTITLE=Joe Filisko - Jail W. Blues
DYEAR=1900
DGENRE=Blues
TTITLE0=Acoustic Harp Version at 60 bpm
TTITLE1=Acoustic Harp Version at 70 bpm
TTITLE2=Acoustic Harp Version at 80 bpm
TTITLE3=Electric Harp Version at 80 bpm
TTITLE4=Page 1 "clean"  at 50 bpm
TTITLE5=Page 2 "clean"  at 50 bpm
TTITLE6=Page 3 "clean"  at 50 bpm
TTITLE7=Page 4 "clean"  at 50 bpm
TTITLE8=Page 5 "clean"  at 50 bpm
TTITLE9=Page 1 "clean"  at 80 bpm
TTITLE10=Page 2 "clean"  at 80 bpm
TTITLE11=Page 3 "clean"  at 80 bpm
TTITLE12=Page 4 "clean"  at 80 bpm
TTITLE13=Page 5 "clean"  at 80 bpm
TTITLE14=Page 1 "dirty"  at 50 bpm
TTITLE15=Page 2 "dirty"  at 50 bpm
TTITLE16=Page 3 "dirty"  at 50 bpm
TTITLE17=Page 4 "dirty"  at 50 bpm
TTITLE18=Page 5 "dirty"  at 50 bpm
TTITLE19=Page 1 "dirty"  at 80 bpm
TTITLE20=Page 2 "dirty"  at 80 bpm
TTITLE21=Page 3 "dirty"  at 80 bpm
TTITLE22=Page 4 "dirty"  at 80 bpm
TTITLE23=Page 5 "dirty"  at 80 bpm
TTITLE24=Practice at 50 bpm
TTITLE25=Practice at 60 bpm
TTITLE26=Practice at 70 bpm
TTITLE27=Practice at 80 bpm
TTITLE28=Practice at 90 bpm
TTITLE29=End at 50 bpm
TTITLE30=End at 60 bpm
TTITLE31=End at 70 bpm
TTITLE32=End at 80 bpm
TTITLE33=End at 90 bpm
EXTD=
EXTT0=
EXTT1=
EXTT2=
EXTT3=
EXTT4=
EXTT5=
EXTT6=
EXTT7=
EXTT8=
EXTT9=
EXTT10=
EXTT11=
EXTT12=
EXTT13=
EXTT14=
EXTT15=
EXTT16=
EXTT17=
EXTT18=
EXTT19=
EXTT20=
EXTT21=
EXTT22=
EXTT23=
EXTT24=
EXTT25=
EXTT26=
EXTT27=
EXTT28=
EXTT29=
EXTT30=
EXTT31=
EXTT32=
EXTT33=
PLAYORDER=
